<svg fill="none" height="284" viewBox="0 0 1366 284" width="1366" xmlns="http://www.w3.org/2000/svg" xmlns:xlink="http://www.w3.org/1999/xlink"><linearGradient id="a"><stop offset="0" stop-color="#389ed9"/><stop offset="1" stop-color="#b1cf1f"/></linearGradient><linearGradient id="b" gradientUnits="userSpaceOnUse" x1="18.4979" x2="1366" xlink:href="#a" y1="142" y2="142"/><linearGradient id="c" gradientUnits="userSpaceOnUse" x1="18.7417" x2="1384" xlink:href="#a" y1="114.5" y2="114.5"/><linearGradient id="d" gradientUnits="userSpaceOnUse" x1="18.7417" x2="1384" xlink:href="#a" y1="104.5" y2="104.5"/><clipPath id="e"><path d="m0 0h1366v284h-1366z"/></clipPath><g clip-path="url(#e)"><path d="m0 0h1366v284h-1366z" fill="url(#b)" opacity=".8"/><g clip-rule="evenodd" fill-rule="evenodd"><path d="m0 .95055 38.4444-13.58985c38.4445-13.5899 115.3336-41.9021 192.2226-48.697s153.777 6.7949 230.666 48.697c76.889 41.902 153.778 110.9838 230.667 151.7533 76.889 41.902 153.778 55.492 230.667 28.312 76.889-28.312 153.773-97.3937 230.663-97.3937s153.78 69.0817 192.23 104.1887l38.44 35.107v82.672h-38.44c-38.45 0-115.34 0-192.23 0s-153.774 0-230.663 0-153.778 0-230.667 0-153.778 0-230.667 0-153.777 0-230.666 0-153.7781 0-192.2226 0h-38.4444z" fill="url(#c)" opacity=".1"/><path d="m0 166.667 57.6667 20.345c57.6663 21.476 173.0003 62.167 288.3333 76.861 115.333 13.563 230.667 0 346-63.297 115.333-62.167 230.667-171.8063 346-227.1912 115.33-55.3848 230.67-55.3848 288.33-55.3848h57.67v373h-57.67c-57.66 0-173 0-288.33 0-115.333 0-230.667 0-346 0s-230.667 0-346 0-230.667 0-288.3333 0h-57.6667z" fill="url(#d)" opacity=".1"/></g></g></svg>